HIERARCHY
ROOT ui
{
	 OFFSET 0 0 0
	 CHANNELS 3 XPosition YPosition Z Position
	 EndSite
	 {
	 OFFSET 0 -1 0
	 }
}
ROOT li
{
	 OFFSET 0 0 0
	 CHANNELS 3 XPosition YPosition Z Position
	 EndSite
	 {
	 OFFSET 0 -1 0
	 }
}
ROOT ul
{
	 OFFSET 0 0 0
	 CHANNELS 3 XPosition YPosition Z Position
	 EndSite
	 {
	 OFFSET 0 -1 0
	 }
}
ROOT ll
{
	 OFFSET 0 0 0
	 CHANNELS 3 XPosition YPosition Z Position
	 EndSite
	 {
	 OFFSET 0 -1 0
	 }
}
ROOT tt
{
	 OFFSET 0 0 0
	 CHANNELS 3 XPosition YPosition Z Position
	 EndSite
	 {
	 OFFSET 0 -1 0
	 }
}
ROOT tb
{
	 OFFSET 0 0 0
	 CHANNELS 3 XPosition YPosition Z Position
	 EndSite
	 {
	 OFFSET 0 -1 0
	 }
}
ROOT td
{
	 OFFSET 0 0 0
	 CHANNELS 3 XPosition YPosition Z Position
	 EndSite
	 {
	 OFFSET 0 -1 0
	 }
}
ROOT v
{
	 OFFSET 0 0 0
	 CHANNELS 3 XPosition YPosition Z Position
	 EndSite
	 {
	 OFFSET 0 -1 0
	 }
}
ROOT bn
{
	 OFFSET 0 0 0
	 CHANNELS 3 XPosition YPosition Z Position
	 EndSite
	 {
	 OFFSET 0 -1 0
	 }
}
MOTION
Frames: 16
Frame Time: 0.002
-0.019332584381103517	2.3312999308109283E-4	0		0.49249127197265624	-2.253680419921875	0		-1.03581396484375	0.27280551147460935	0		-0.41346609497070314	-2.670177978515625	0		2.3801162109375	0.03666716384887695	0		3.751303466796875	0.26278070068359377	0		5.002916015625	0.3220115356445313	0		6.0322138671875	0.5644124145507813	0		-0.27863916015625	5.92293408203125	0		
0.014909589767456054	-0.0026490080356597902	0		0.5575942993164062	-2.265866455078125	0		-0.9525109252929688	0.2754849548339844	0		-0.4482363586425781	-2.667400634765625	0		2.384417236328125	0.040011314392089846	0		3.75887353515625	0.2940631713867187	0		5.007251953125	0.32829400634765626	0		6.036029296875	0.578680908203125	0		-0.25927621459960937	5.91819921875	0		
-0.015790661811828612	0.00207757306098938	0		0.517868896484375	-2.260063232421875	0		-0.9632455444335938	0.2760378112792969	0		-0.38818023681640623	-2.684525390625	0		2.37848974609375	0.020466196060180665	0		3.738903564453125	0.2696292114257812	0		5.008517578125	0.32864129638671874	0		6.03258251953125	0.5620517578125	0		-0.2939790954589844	5.91296826171875	0		
0.007406842231750488	-0.0027048530578613283	0		0.543039306640625	-2.26586865234375	0		-0.9729971923828125	0.27657443237304685	0		-0.46700851440429686	-2.689340576171875	0		2.379631591796875	0.009873369216918945	0		3.73914208984375	0.26903482055664063	0		5.0096240234375	0.3140281982421875	0		6.032751953125	0.560991943359375	0		-0.3097811584472656	5.90355712890625	0		
-0.01441142177581787	-0.0070573511123657225	0		0.5142578735351563	-2.266155517578125	0		-0.9727785034179688	0.27601434326171875	0		-0.3940121154785156	-2.713590087890625	0		2.37580322265625	0.004349435806274414	0		3.7532373046875	0.25534033203125	0		5.0007109375	0.2995504455566406	0		6.02214892578125	0.544692138671875	0		-0.31054977416992186	5.904005859375	0		
0.007824176788330079	-0.0038164119720458982	0		0.5164892578125	-2.264722412109375	0		-1.0415028076171875	0.28410888671875	0		-0.4667746276855469	-2.711453857421875	0		2.355936767578125	-0.0029977729320526123	0		3.743567138671875	0.2689061279296875	0		5.00396435546875	0.3050014343261719	0		6.0259169921875	0.5592906494140625	0		-0.2943028259277344	5.9123017578125	0		
-0.019911779403686523	0.004912051200866699	0		0.51669482421875	-2.26525146484375	0		-0.9742464599609375	0.29192825317382814	0		-0.404698486328125	-2.726579345703125	0		2.39899951171875	-0.015909507751464845	0		3.749477294921875	0.24036114501953126	0		5.015005859375	0.29042404174804687	0		6.02604296875	0.5584927978515625	0		-0.295187744140625	5.91277197265625	0		
0.011196636199951171	-8.93334984779358E-4	0		0.5217692260742187	-2.27880224609375	0		-0.9791321411132813	0.2874449462890625	0		-0.41458700561523437	-2.737005126953125	0		2.3550361328125	-0.02896547508239746	0		3.757695556640625	0.24683853149414062	0		5.011091796875	0.2830374755859375	0		6.026154296875	0.5577906494140625	0		-0.2961166076660156	5.9142626953125	0		
-0.01961768913269043	0.003912972927093506	0		0.508995849609375	-2.275153564453125	0		-0.9830386352539062	0.28297576904296873	0		-0.38164334106445313	-2.764808349609375	0		2.361023681640625	-0.04545320510864258	0		3.754658447265625	0.22846693420410155	0		5.00310107421875	0.2697407531738281	0		6.02625048828125	0.5571874389648438	0		-0.296112060546875	5.91377099609375	0		
0.006491809844970703	0.0022183079719543457	0		0.5160725708007813	-2.28665576171875	0		-0.98887890625	0.28755520629882814	0		-0.4145893859863281	-2.779959228515625	0		2.36205126953125	-0.05585051727294922	0		3.733660888671875	0.2163125457763672	0		5.0081484375	0.26237548828125	0		6.0227080078125	0.5411964721679687	0		-0.311250244140625	5.90245361328125	0		
0.011560381889343262	-0.0022389230728149414	0		0.5251708374023437	-2.29513525390625	0		-0.9828280639648438	0.2820594482421875	0		-0.39964498901367185	-2.806521240234375	0		2.359990966796875	-0.07417257690429688	0		3.7485732421875	0.19587210083007814	0		5.00317236328125	0.25415873718261717	0		6.0234814453125	0.5373178100585938	0		-0.29523406982421874	5.9108837890625	0		
0.02274801826477051	0.007292452812194824	0		0.5273565063476563	-2.293503662109375	0		-0.9736679077148438	0.2895782775878906	0		-0.41746102905273436	-2.806732421875	0		2.361892822265625	-0.0954822998046875	0		3.75672705078125	0.2025489501953125	0		5.00325927734375	0.25394976806640623	0		6.01934130859375	0.556139892578125	0		-0.31140789794921875	5.90165771484375	0		
0.006776503086090088	0.0011249279975891113	0		0.5484302978515625	-2.302997802734375	0		-0.99457421875	0.2914244079589844	0		-0.388565673828125	-2.83733056640625	0		2.355896484375	-0.10466646575927735	0		3.740628662109375	0.18350326538085937	0		5.00421435546875	0.24078663635253905	0		6.01577392578125	0.5404430541992188	0		-0.32759866333007814	5.8924794921875	0		
-0.014190437316894532	-0.0029443180561065673	0		0.5175480346679687	-2.30595703125	0		-0.9945145263671875	0.2911282958984375	0		-0.3995145263671875	-2.849504638671875	0		2.358774658203125	-0.12588027954101563	0		3.736645751953125	0.17839857482910157	0		5.00921044921875	0.2336400146484375	0		6.01218896484375	0.5231087646484375	0		-0.327721435546875	5.892205078125	0		
0.006895576000213623	6.547060012817383E-4	0		0.54060595703125	-2.31335888671875	0		-0.9944738159179688	0.29088970947265624	0		-0.41352066040039065	-2.8655947265625	0		2.347681884765625	-0.14191018676757813	0		3.7555048828125	0.1581363525390625	0		4.99618896484375	0.22671244812011718	0		6.0122236328125	0.523083740234375	0		-0.3288404541015625	5.89399658203125	0		
0.0069216561317443845	5.083690285682678E-4	0		0.5025753479003906	-2.3271396484375	0		-0.984383544921875	0.298620849609375	0		-0.3986376953125	-2.890890625	0		2.347482666015625	-0.1669844207763672	0		3.73754541015625	0.1602689666748047	0		5.00607958984375	0.21262637329101564	0		6.0158720703125	0.5403678588867188	0		-0.3139021301269531	5.9037021484375	0		
